# xmcd
#
# Track frame offsets: 
#        150
#        18335
#        35065
#        51992
#        74626
#        89676
#        108727
#        126575
#        145394
#        160269
#        173749
#        187141
#        202330
#        221018
#        236377
#        251870
#
# Disc length: 3637 seconds
#
# Revision: 0
# Processed by: cddbd v1.5.2PL0 Copyright (c) Steve Scherf et al.
# Submitted via: ExactAudioCopy v1.0b3
#
DISCID=0a0e3310
DTITLE=Malú - Íntima Guerra Fría
DYEAR=2011
DGENRE=Pop
TTITLE0=Ahora Tú (Directo en México 2011)
TTITLE1=Diles (Directo en México 2011)
TTITLE2=No Voy A Cambiar (Directo en México 2011)
TTITLE3=Aprendiz (Directo en México 2011)
TTITLE4=Ni Un Segundo (con Leonel García) (Directo en México 2011)
TTITLE5=Guerra Fría (Directo en México 2011)
TTITLE6=Blanco and Negro (Directo en México 2011)
TTITLE7=Quién (Directo en México 2011)
TTITLE8=Libérame (Maquetas 2010)
TTITLE9=Voy A Quemarlo Todo (Maquetas 2010)
TTITLE10=Y Ahora Vete (Maquetas 2010)
TTITLE11=Vértigo (Maquetas 2010)
TTITLE12=Así Lo Haré (Maquetas 2010)
TTITLE13=El Apagón (Maquetas 2010)
TTITLE14=Búscame (Maquetas 2010)
TTITLE15=El Día de Antes (Inédito)
EXTD=
EXTT0=
EXTT1=
EXTT2=
EXTT3=
EXTT4=
EXTT5=
EXTT6=
EXTT7=
EXTT8=
EXTT9=
EXTT10=
EXTT11=
EXTT12=
EXTT13=
EXTT14=
EXTT15=
PLAYORDER=
